HIERARCHY
ROOT hip
{
  OFFSET 0 0 0
  CHANNELS 6 Xposition Yposition Zposition Zrotation Yrotation Xrotation
  JOINT abdomen
  {
    OFFSET 0 20.6881 -0.73152
    CHANNELS 3 Zrotation Xrotation Yrotation
    JOINT chest
    {
      OFFSET 0 11.7043 -0.48768
      CHANNELS 3 Zrotation Xrotation Yrotation
      JOINT neck
      {
        OFFSET 0 22.1894 -2.19456
        CHANNELS 3 Zrotation Xrotation Yrotation
        JOINT head
        {
          OFFSET -0.24384 7.07133 1.2192
          CHANNELS 3 Zrotation Xrotation Yrotation
          JOINT leftEye
          {
            OFFSET 4.14528 8.04674 8.04672
            CHANNELS 3 Zrotation Xrotation Yrotation
            End Site
            {
              OFFSET 1 0 0
            }
          }
          JOINT rightEye
          {
            OFFSET -3.6576 8.04674 8.04672
            CHANNELS 3 Zrotation Xrotation Yrotation
            End Site
            {
              OFFSET 1 0 0
            }
          }
        }
      }
      JOINT rCollar
      {
        OFFSET -2.68224 19.2634 -4.8768
        CHANNELS 3 Zrotation Xrotation Yrotation
        JOINT rShldr
        {
          OFFSET -8.77824 -1.95073 1.46304
          CHANNELS 3 Zrotation Xrotation Yrotation
          JOINT rForeArm
          {
            OFFSET -28.1742 -1.7115 0.48768
            CHANNELS 3 Zrotation Xrotation Yrotation
            JOINT rHand
            {
              OFFSET -22.5879 0.773209 7.07136
              CHANNELS 3 Zrotation Xrotation Yrotation
              JOINT rThumb1
              {
                OFFSET -1.2192 -0.487915 3.41376
                CHANNELS 3 Zrotation Xrotation Yrotation
                JOINT rThumb2
                {
                  OFFSET -3.37035 -0.52449 3.41376
                  CHANNELS 3 Zrotation Xrotation Yrotation
                  End Site
                  {
                    OFFSET -1.78271 -1.18214 1.43049
                  }
                }
              }
              JOINT rIndex1
              {
                OFFSET -7.75947 0.938293 5.60832
                CHANNELS 3 Zrotation Xrotation Yrotation
                JOINT rIndex2
                {
                  OFFSET -2.54057 -0.884171 1.56538
                  CHANNELS 3 Zrotation Xrotation Yrotation
                  End Site
                  {
                    OFFSET -1.62519 -0.234802 1.16502
                  }
                }
              }
              JOINT rMid1
              {
                OFFSET -8.24714 1.18213 3.41376
                CHANNELS 3 Zrotation Xrotation Yrotation
                JOINT rMid2
                {
                  OFFSET -3.10165 -0.590103 1.0647
                  CHANNELS 3 Zrotation Xrotation Yrotation
                  End Site
                  {
                    OFFSET -2.48547 -0.328903 0.83742
                  }
                }
              }
              JOINT rRing1
              {
                OFFSET -8.82822 0.546677 1.51678
                CHANNELS 3 Zrotation Xrotation Yrotation
                JOINT rRing2
                {
                  OFFSET -2.60934 -0.819778 -0.0198488
                  CHANNELS 3 Zrotation Xrotation Yrotation
                  End Site
                  {
                    OFFSET -2.33842 -0.294052 0.168128
                  }
                }
              }
              JOINT rPinky1
              {
                OFFSET -8.27202 -0.0477905 -0.4584
                CHANNELS 3 Zrotation Xrotation Yrotation
                JOINT rPinky2
                {
                  OFFSET -1.82734 -0.647385 -0.700984
                  CHANNELS 3 Zrotation Xrotation Yrotation
                  End Site
                  {
                    OFFSET -1.69225 -0.51767 -0.607171
                  }
                }
              }
            }
          }
        }
      }
      JOINT lCollar
      {
        OFFSET 2.68224 19.2634 -4.8768
        CHANNELS 3 Zrotation Xrotation Yrotation
        JOINT lShldr
        {
          OFFSET 8.77824 -1.95073 1.46304
          CHANNELS 3 Zrotation Xrotation Yrotation
          JOINT lForeArm
          {
            OFFSET 28.1742 -1.7115 0.48768
            CHANNELS 3 Zrotation Xrotation Yrotation
            JOINT lHand
            {
              OFFSET 22.5879 0.773209 7.07136
              CHANNELS 3 Zrotation Xrotation Yrotation
              JOINT lThumb1
              {
                OFFSET 1.2192 -0.487915 3.41376
                CHANNELS 3 Zrotation Xrotation Yrotation
                JOINT lThumb2
                {
                  OFFSET 3.37035 -0.52449 3.41376
                  CHANNELS 3 Zrotation Xrotation Yrotation
                  End Site
                  {
                    OFFSET 1.78271 -1.18214 1.43049
                  }
                }
              }
              JOINT lIndex1
              {
                OFFSET 7.75947 0.938293 5.60832
                CHANNELS 3 Zrotation Xrotation Yrotation
                JOINT lIndex2
                {
                  OFFSET 2.54057 -0.884171 1.56538
                  CHANNELS 3 Zrotation Xrotation Yrotation
                  End Site
                  {
                    OFFSET 1.62519 -0.234802 1.16502
                  }
                }
              }
              JOINT lMid1
              {
                OFFSET 8.24714 1.18213 3.41376
                CHANNELS 3 Zrotation Xrotation Yrotation
                JOINT lMid2
                {
                  OFFSET 3.10165 -0.590103 1.0647
                  CHANNELS 3 Zrotation Xrotation Yrotation
                  End Site
                  {
                    OFFSET 2.48547 -0.328903 0.83742
                  }
                }
              }
              JOINT lRing1
              {
                OFFSET 8.82822 0.546677 1.51678
                CHANNELS 3 Zrotation Xrotation Yrotation
                JOINT lRing2
                {
                  OFFSET 2.60934 -0.819778 -0.0198488
                  CHANNELS 3 Zrotation Xrotation Yrotation
                  End Site
                  {
                    OFFSET 2.33842 -0.294052 0.168128
                  }
                }
              }
              JOINT lPinky1
              {
                OFFSET 8.27202 -0.0477905 -0.4584
                CHANNELS 3 Zrotation Xrotation Yrotation
                JOINT lPinky2
                {
                  OFFSET 1.82734 -0.647385 -0.700984
                  CHANNELS 3 Zrotation Xrotation Yrotation
                  End Site
                  {
                    OFFSET 1.69225 -0.51767 -0.607171
                  }
                }
              }
            }
          }
        }
      }
    }
  }
  JOINT rButtock
  {
    OFFSET -8.77824 4.35084 1.2192
    CHANNELS 3 Zrotation Xrotation Yrotation
    JOINT rThigh
    {
      OFFSET 0 -1.70687 -2.19456
      CHANNELS 3 Zrotation Xrotation Yrotation
      JOINT rShin
      {
        OFFSET 0 -36.8199 0.73152
        CHANNELS 3 Zrotation Xrotation Yrotation
        JOINT rFoot
        {
          OFFSET 0.73152 -45.1104 -5.12064
          CHANNELS 3 Zrotation Xrotation Yrotation
          End Site
          {
            OFFSET -1.1221 -3.69964 12.103
          }
        }
      }
    }
  }
  JOINT lButtock
  {
    OFFSET 8.77824 4.35084 1.2192
    CHANNELS 3 Zrotation Xrotation Yrotation
    JOINT lThigh
    {
      OFFSET 0 -1.70687 -2.19456
      CHANNELS 3 Zrotation Xrotation Yrotation
      JOINT lShin
      {
        OFFSET 0 -36.8199 0.73152
        CHANNELS 3 Zrotation Xrotation Yrotation
        JOINT lFoot
        {
          OFFSET -0.73152 -45.1104 -5.12064
          CHANNELS 3 Zrotation Xrotation Yrotation
          End Site
          {
            OFFSET 1.1221 -3.69964 12.103
          }
        }
      }
    }
  }
}
MOTION
Frames:	8
Frame Time:	0.00833333
109.631 81.0173 -49.1864 -4.3884 -56.2132 16.1123 5.96597 36.7951 -6.17896 -1.51479 4.75735 -1.541 4.42894 22.4158 0.835103 -1.4667 -45.7579 1.57589 -0.0 0.0 0.0 -0.0 0.0 0.0 3.21346e-13 1.99579e-13 -1.82733e-13 55.9141 38.3406 36.0977 -28.1308 -31.4755 69.6252 -0.218033 13.1837 1.88659 6.65999e-09 -1.11031e-08 -3.21659e-09 1.14811e-08 -1.9197e-08 -5.63201e-09 6.65999e-09 -1.11031e-08 -3.21661e-09 7.73091 5.47488 0.417314 6.65999e-09 -1.11031e-08 -3.2166e-09 2.90554 0.965183 0.102902 6.66e-09 -1.11031e-08 -3.2166e-09 10.2786 0.731801 0.0259123 6.65999e-09 -1.11031e-08 -3.21659e-09 2.22167 -0.733487 -0.20892 3.21097e-13 1.99579e-13 -1.82981e-13 -60.9206 32.3845 -28.7089 27.7996 -29.5276 -66.4954 0.012699 -3.21566 0.452412 -4.49159e-09 7.76843e-09 8.47541e-09 -7.78484e-09 1.34319e-08 1.46462e-08 -4.4916e-09 7.76843e-09 8.47541e-09 -7.73091 5.47488 -0.417314 -4.49159e-09 7.76843e-09 8.47541e-09 -2.90554 0.965183 -0.102902 -4.4916e-09 7.76843e-09 8.47541e-09 -10.2786 0.731801 -0.0259123 -4.49158e-09 7.76843e-09 8.4754e-09 -2.22167 -0.733487 0.20892 -2.03217e-16 0.0 -3.88251e-19 3.42697 -51.6125 -3.9393 -0.369794 40.588 0.594775 -2.4827 -4.4782 -12.033 2.03217e-16 0.0 3.88251e-19 13.8517 -50.287 15.4441 2.1562 71.1057 -2.79439 0.997377 -7.31237 1.16655
109.384 80.934 -49.1296 -4.3979 -56.1261 16.2208 5.87496 36.8342 -6.23961 -1.54675 4.74214 -1.55071 4.43516 22.4033 0.829506 -1.41377 -45.7807 1.58784 -0.0 0.0 0.0 -0.0 0.0 0.0 3.29655e-13 -1.54799e-13 -2.93267e-13 55.889 38.2208 36.1494 -28.1308 -31.475 69.6238 -0.217552 13.1695 1.88449 5.50409e-09 -8.69671e-09 -2.36947e-09 9.4919e-09 -1.50394e-08 -4.15333e-09 5.50409e-09 -8.69669e-09 -2.36948e-09 7.73091 5.47488 0.417314 5.50409e-09 -8.6967e-09 -2.36948e-09 2.90554 0.965183 0.102902 5.5041e-09 -8.6967e-09 -2.36947e-09 10.2786 0.731801 0.0259123 5.50409e-09 -8.6967e-09 -2.36946e-09 2.22167 -0.733487 -0.20892 3.29443e-13 -1.54797e-13 -2.93518e-13 -60.9664 32.2368 -28.7763 27.8029 -29.5441 -66.5219 0.0124814 -3.18772 0.448472 -3.2562e-09 6.82509e-09 7.08158e-09 -5.64545e-09 1.18015e-08 1.22388e-08 -3.25621e-09 6.82509e-09 7.08158e-09 -7.73091 5.47488 -0.417314 -3.25621e-09 6.82509e-09 7.08158e-09 -2.90554 0.965183 -0.102902 -3.25622e-09 6.82509e-09 7.08158e-09 -10.2786 0.731801 -0.0259123 -3.2562e-09 6.82509e-09 7.08157e-09 -2.22167 -0.733487 0.20892 -2.03217e-16 0.0 -3.88251e-19 3.22709 -51.8092 -4.21564 -0.379683 41.0879 0.621937 -2.58496 -4.97929 -11.9275 2.03217e-16 0.0 3.88251e-19 13.6637 -50.774 15.4624 1.98775 70.0875 -2.65519 0.947771 -8.70191 0.8975
109.146 80.8497 -49.0702 -4.4127 -56.0404 16.33 5.80523 36.8655 -6.30521 -1.57947 4.72876 -1.55954 4.44389 22.3976 0.822112 -1.37579 -45.81 1.59144 -0.0 0.0 0.0 -0.0 0.0 0.0 3.77953e-13 -6.14197e-13 -4.51912e-13 55.8757 38.1012 36.1893 -28.1315 -31.4782 69.6275 -0.216809 13.1475 1.88122 2.83456e-09 -3.73775e-09 -6.13666e-10 4.89649e-09 -6.47235e-09 -1.08798e-09 2.83456e-09 -3.73774e-09 -6.13675e-10 7.73091 5.47488 0.417314 2.83456e-09 -3.73775e-09 -6.13671e-10 2.90554 0.965183 0.102902 2.83457e-09 -3.73775e-09 -6.13667e-10 10.2786 0.731801 0.0259123 2.83456e-09 -3.73775e-09 -6.13658e-10 2.22167 -0.733487 -0.20892 3.77804e-13 -6.14194e-13 -4.52161e-13 -61.0119 32.1002 -28.8437 27.8045 -29.552 -66.5347 0.012319 -3.16694 0.445543 -1.11341e-09 4.31663e-09 4.3829e-09 -1.93313e-09 7.46437e-09 7.57574e-09 -1.11342e-09 4.31663e-09 4.3829e-09 -7.73091 5.47488 -0.417314 -1.11342e-09 4.31662e-09 4.3829e-09 -2.90554 0.965183 -0.102902 -1.11342e-09 4.31662e-09 4.3829e-09 -10.2786 0.731801 -0.0259123 -1.11341e-09 4.31663e-09 4.3829e-09 -2.22167 -0.733487 0.20892 -2.03217e-16 0.0 -3.88251e-19 3.02683 -52.01 -4.49903 -0.389698 41.5758 0.645327 -2.68221 -5.46853 -11.8303 2.03217e-16 0.0 3.88251e-19 13.4548 -51.2317 15.47 1.82185 68.9508 -2.51454 0.898005 -9.99873 0.677426
108.916 80.7665 -49.0085 -4.4319 -55.9617 16.4377 5.74535 36.8968 -6.3701 -1.6093 4.71516 -1.56759 4.45101 22.3948 0.815255 -1.34548 -45.8352 1.59271 -0.0 0.0 0.0 -0.0 0.0 0.0 4.0349e-13 -1.00444e-12 -5.74577e-13 55.867 37.9886 36.2211 -28.1326 -31.4833 69.6337 -0.216131 13.1273 1.87824 5.7463e-11 1.30341e-09 1.11365e-09 1.14692e-10 2.23785e-09 1.92889e-09 5.74639e-11 1.30341e-09 1.11365e-09 7.73091 5.47488 0.417314 5.74611e-11 1.30341e-09 1.11365e-09 2.90554 0.965183 0.102902 5.74674e-11 1.30341e-09 1.11365e-09 10.2786 0.731801 0.0259123 5.74592e-11 1.30341e-09 1.11366e-09 2.22167 -0.733487 -0.20892 4.03402e-13 -1.00444e-12 -5.74823e-13 -61.0605 31.9753 -28.9043 27.8052 -29.5556 -66.5406 0.0121808 -3.14934 0.443061 1.01626e-09 1.58683e-09 1.50753e-09 1.75679e-09 2.74439e-09 2.60718e-09 1.01625e-09 1.58683e-09 1.50754e-09 -7.73091 5.47488 -0.417314 1.01625e-09 1.58683e-09 1.50754e-09 -2.90554 0.965183 -0.102902 1.01625e-09 1.58683e-09 1.50754e-09 -10.2786 0.731801 -0.0259123 1.01626e-09 1.58683e-09 1.50754e-09 -2.22167 -0.733487 0.20892 -2.03217e-16 0.0 -3.88251e-19 2.83746 -52.2011 -4.76558 -0.39981 42.0474 0.665945 -2.77561 -5.95092 -11.7378 2.03217e-16 0.0 3.88251e-19 13.2287 -51.6506 15.4573 1.66541 67.742 -2.37916 0.842809 -11.1806 0.473815
108.694 80.6862 -48.9441 -4.4495 -55.8882 16.5338 5.68396 36.9356 -6.42864 -1.63262 4.6993 -1.57495 4.45239 22.3909 0.811268 -1.31558 -45.8455 1.59767 -0.0 0.0 0.0 -0.0 0.0 0.0 3.43516e-13 -1.15136e-12 -5.77171e-13 55.856 37.8898 36.2486 -28.1335 -31.4882 69.6398 -0.215843 13.1187 1.87696 -1.42114e-09 3.9564e-09 1.87533e-09 -2.43363e-09 6.82468e-09 3.26211e-09 -1.42114e-09 3.9564e-09 1.87533e-09 7.73091 5.47488 0.417314 -1.42114e-09 3.9564e-09 1.87533e-09 2.90554 0.965183 0.102902 -1.42114e-09 3.9564e-09 1.87533e-09 10.2786 0.731801 0.0259123 -1.42115e-09 3.9564e-09 1.87534e-09 2.22167 -0.733487 -0.20892 3.43456e-13 -1.15136e-12 -5.7742e-13 -61.1158 31.8626 -28.9513 27.8058 -29.559 -66.5461 0.0120375 -3.1309 0.440462 2.21228e-09 -2.05273e-11 -4.16341e-10 3.82897e-09 -3.4668e-11 -7.16896e-10 2.21227e-09 -2.05293e-11 -4.16335e-10 -7.73091 5.47488 -0.417314 2.21228e-09 -2.05301e-11 -4.16335e-10 -2.90554 0.965183 -0.102902 2.21228e-09 -2.05306e-11 -4.16336e-10 -10.2786 0.731801 -0.0259123 2.21228e-09 -2.05281e-11 -4.16335e-10 -2.22167 -0.733487 0.20892 -2.03217e-16 0.0 -3.88251e-19 2.67116 -52.3691 -4.99064 -0.410037 42.4988 0.684816 -2.86616 -6.43153 -11.6466 2.03217e-16 0.0 3.88251e-19 12.9889 -52.0214 15.4148 1.5228 66.5078 -2.25319 0.774221 -12.2255 0.253837
108.478 80.6078 -48.876 -4.4667 -55.8257 16.6202 5.62137 36.9852 -6.48642 -1.64584 4.67895 -1.58318 4.44732 22.3861 0.811187 -1.2833 -45.8373 1.60868 -0.0 0.0 0.0 -0.0 0.0 0.0 1.22056e-13 -8.96407e-13 -3.69234e-13 55.8393 37.8087 36.2732 -28.1343 -31.4923 69.645 -0.216127 13.1272 1.87822 -8.64339e-10 2.87503e-09 1.064e-09 -1.48189e-09 4.96505e-09 1.8537e-09 -8.6434e-10 2.87503e-09 1.06399e-09 7.73091 5.47488 0.417314 -8.64342e-10 2.87503e-09 1.064e-09 2.90554 0.965183 0.102902 -8.64335e-10 2.87503e-09 1.06399e-09 10.2786 0.731801 0.0259123 -8.64345e-10 2.87503e-09 1.06401e-09 2.22167 -0.733487 -0.20892 1.2197e-13 -8.96407e-13 -3.69496e-13 -61.1798 31.7612 -28.9824 27.8063 -29.5617 -66.5506 0.0118572 -3.10744 0.437155 1.99746e-09 7.65694e-11 -1.03532e-09 3.45649e-09 1.33735e-10 -1.78548e-09 1.99745e-09 7.65673e-11 -1.03532e-09 -7.73091 5.47488 -0.417314 1.99746e-09 7.65662e-11 -1.03532e-09 -2.90554 0.965183 -0.102902 1.99746e-09 7.65657e-11 -1.03532e-09 -10.2786 0.731801 -0.0259123 1.99746e-09 7.65685e-11 -1.03532e-09 -2.22167 -0.733487 0.20892 -2.03217e-16 0.0 -3.88251e-19 2.52807 -52.5106 -5.17083 -0.42027 42.9278 0.701645 -2.95528 -6.91565 -11.5577 2.03217e-16 0.0 3.88251e-19 12.7206 -52.3404 15.3223 1.39131 65.2216 -2.1332 0.685581 -13.1378 -0.00428448
108.269 80.5299 -48.8055 -4.4814 -55.7776 16.6948 5.56256 37.0412 -6.54413 -1.65177 4.65576 -1.59172 4.43786 22.382 0.813629 -1.25283 -45.8165 1.62228 -0.0 0.0 0.0 -0.0 0.0 0.0 -2.07676e-13 -3.69839e-13 -1.82913e-14 55.821 37.7409 36.2927 -28.1352 -31.4968 69.6509 -0.21678 13.1466 1.88109 8.57314e-10 -3.94047e-10 -7.01379e-10 1.47224e-09 -6.70471e-10 -1.21694e-09 8.57311e-10 -3.9404e-10 -7.01386e-10 7.73091 5.47488 0.417314 8.5731e-10 -3.9404e-10 -7.01384e-10 2.90554 0.965183 0.102902 8.57319e-10 -3.9404e-10 -7.01383e-10 10.2786 0.731801 0.0259123 8.57308e-10 -3.94041e-10 -7.01371e-10 2.22167 -0.733487 -0.20892 -2.07823e-13 -3.69839e-13 -1.8574e-14 -61.25 31.671 -29.0015 27.8064 -29.562 -66.5512 0.0116643 -3.08212 0.433587 9.39982e-10 1.08688e-09 -9.68623e-10 1.62402e-09 1.88129e-09 -1.66891e-09 9.39978e-10 1.08688e-09 -9.68619e-10 -7.73091 5.47488 -0.417314 9.39982e-10 1.08688e-09 -9.68617e-10 -2.90554 0.965183 -0.102902 9.39981e-10 1.08688e-09 -9.68621e-10 -10.2786 0.731801 -0.0259123 9.39988e-10 1.08688e-09 -9.68625e-10 -2.22167 -0.733487 0.20892 -2.03217e-16 0.0 -3.88251e-19 2.40411 -52.633 -5.31712 -0.430359 43.3371 0.715951 -3.04218 -7.39924 -11.4722 2.03217e-16 0.0 3.88251e-19 12.4258 -52.6128 15.1894 1.26997 63.8716 -2.01848 0.58431 -13.9258 -0.278817
108.064 80.4536 -48.7309 -4.4991 -55.7467 16.7616 5.50311 37.0995 -6.58866 -1.65638 4.63351 -1.59748 4.42409 22.3772 0.817302 -1.2273 -45.7867 1.63572 -0.0 0.0 0.0 -0.0 0.0 0.0 -5.14647e-13 1.69302e-13 3.22763e-13 55.8055 37.6811 36.3054 -28.1361 -31.5019 69.6578 -0.217539 13.1691 1.88443 2.73868e-09 -3.98186e-09 -2.51844e-09 4.70216e-09 -6.85787e-09 -4.37889e-09 2.73868e-09 -3.98185e-09 -2.51844e-09 7.73091 5.47488 0.417314 2.73868e-09 -3.98185e-09 -2.51844e-09 2.90554 0.965183 0.102902 2.73869e-09 -3.98185e-09 -2.51844e-09 10.2786 0.731801 0.0259123 2.73868e-09 -3.98185e-09 -2.51843e-09 2.22167 -0.733487 -0.20892 -5.14853e-13 1.69302e-13 3.22464e-13 -61.3233 31.5943 -29.0109 27.8064 -29.5623 -66.5519 0.0115127 -3.06201 0.430752 -3.12593e-10 2.29431e-09 -5.46984e-10 -5.46371e-10 3.96951e-09 -9.39215e-10 -3.12597e-10 2.29431e-09 -5.46981e-10 -7.73091 5.47488 -0.417314 -3.12593e-10 2.29431e-09 -5.4698e-10 -2.90554 0.965183 -0.102902 -3.12593e-10 2.29431e-09 -5.46984e-10 -10.2786 0.731801 -0.0259123 -3.12584e-10 2.29431e-09 -5.46993e-10 -2.22167 -0.733487 0.20892 -2.03217e-16 0.0 -3.88251e-19 2.30571 -52.7393 -5.42599 -0.440323 43.729 0.728519 -3.12446 -7.87336 -11.3871 2.03217e-16 0.0 3.88251e-19 12.1339 -52.8429 15.051 1.16224 62.5264 -1.91384 0.483699 -14.5728 -0.537096
